<mxfile host="app.diagrams.net" modified="2023-06-10T07:29:18.697Z" agent="Mozilla/5.0 (Macintosh; Intel Mac OS X 10_15_7) AppleWebKit/537.36 (KHTML, like Gecko) Chrome/114.0.0.0 Safari/537.36" etag="TYwM4LNullx_37ipbWlD" version="21.3.8" type="github">
  <diagram name="Page-1" id="K00MPjgSYK-7iL0MzGH3">
    <mxGraphModel dx="1907" dy="700" grid="1" gridSize="10" guides="1" tooltips="1" connect="1" arrows="1" fold="1" page="1" pageScale="1" pageWidth="827" pageHeight="1169" background="#ffffff" math="0" shadow="0">
      <root>
        <mxCell id="0" />
        <mxCell id="1" parent="0" />
        <mxCell id="QR9VkMOGDWLdo13nXd3E-1" value="" style="shape=image;html=1;verticalAlign=top;verticalLabelPosition=bottom;labelBackgroundColor=#ffffff;imageAspect=0;aspect=fixed;image=https://cdn4.iconfinder.com/data/icons/ionicons/512/icon-ios7-world-outline-128.png" vertex="1" parent="1">
          <mxGeometry x="451" y="270" width="128" height="128" as="geometry" />
        </mxCell>
        <mxCell id="QR9VkMOGDWLdo13nXd3E-2" value="" style="rounded=1;whiteSpace=wrap;html=1;fillColor=#E8E8E8;gradientColor=none;arcSize=5;imageHeight=24;" vertex="1" parent="1">
          <mxGeometry x="-70" y="560" width="1660" height="490" as="geometry" />
        </mxCell>
        <mxCell id="QR9VkMOGDWLdo13nXd3E-3" value="" style="rounded=1;whiteSpace=wrap;html=1;fillColor=#969696;gradientColor=none;arcSize=5;imageHeight=24;" vertex="1" parent="1">
          <mxGeometry y="598" width="1570" height="290" as="geometry" />
        </mxCell>
        <mxCell id="QR9VkMOGDWLdo13nXd3E-4" value="&lt;font color=&quot;#000000&quot;&gt;MariaDB&lt;br&gt;(mysqld)&lt;br&gt;&lt;/font&gt;" style="rounded=1;whiteSpace=wrap;html=1;fillColor=#FFFFFF;strokeColor=#000000;" vertex="1" parent="1">
          <mxGeometry x="10" y="640" width="110" height="100" as="geometry" />
        </mxCell>
        <mxCell id="QR9VkMOGDWLdo13nXd3E-5" value="&lt;font color=&quot;#000000&quot;&gt;WordPress&lt;br&gt;(PHP-FPM)&lt;br&gt;&lt;/font&gt;" style="rounded=1;whiteSpace=wrap;html=1;fillColor=#FFFFFF;strokeColor=#000000;" vertex="1" parent="1">
          <mxGeometry x="255" y="640" width="110" height="100" as="geometry" />
        </mxCell>
        <mxCell id="QR9VkMOGDWLdo13nXd3E-10" value="" style="endArrow=classic;startArrow=classic;html=1;rounded=0;dashed=1;strokeColor=#000000;" edge="1" parent="1" source="QR9VkMOGDWLdo13nXd3E-4" target="QR9VkMOGDWLdo13nXd3E-5">
          <mxGeometry width="50" height="50" relative="1" as="geometry">
            <mxPoint x="180" y="800" as="sourcePoint" />
            <mxPoint x="230" y="750" as="targetPoint" />
          </mxGeometry>
        </mxCell>
        <mxCell id="QR9VkMOGDWLdo13nXd3E-11" value="&lt;font color=&quot;#000000&quot;&gt;Reverse Proxy&lt;br&gt;(NGINX)&lt;br&gt;&lt;/font&gt;" style="rounded=1;whiteSpace=wrap;html=1;fillColor=#FFFFFF;strokeColor=#000000;" vertex="1" parent="1">
          <mxGeometry x="460" y="640" width="110" height="100" as="geometry" />
        </mxCell>
        <mxCell id="QR9VkMOGDWLdo13nXd3E-12" value="" style="endArrow=classic;startArrow=classic;html=1;rounded=0;entryX=0;entryY=0.5;entryDx=0;entryDy=0;exitX=1;exitY=0.5;exitDx=0;exitDy=0;dashed=1;strokeColor=#000000;" edge="1" parent="1" source="QR9VkMOGDWLdo13nXd3E-5" target="QR9VkMOGDWLdo13nXd3E-11">
          <mxGeometry width="50" height="50" relative="1" as="geometry">
            <mxPoint x="280" y="800" as="sourcePoint" />
            <mxPoint x="330" y="750" as="targetPoint" />
          </mxGeometry>
        </mxCell>
        <mxCell id="QR9VkMOGDWLdo13nXd3E-14" value="&lt;font color=&quot;#000000&quot;&gt;&lt;br&gt;Wordpress&lt;br&gt;DB&lt;br&gt;&lt;/font&gt;" style="strokeWidth=1;html=1;shape=mxgraph.flowchart.database;whiteSpace=wrap;fillColor=#FFFFFF;strokeColor=#000000;" vertex="1" parent="1">
          <mxGeometry x="17.5" y="930" width="95" height="80" as="geometry" />
        </mxCell>
        <mxCell id="QR9VkMOGDWLdo13nXd3E-15" value="&lt;font color=&quot;#000000&quot;&gt;&lt;br&gt;Wordpress&lt;br&gt;.php files&lt;br&gt;&lt;/font&gt;" style="strokeWidth=1;html=1;shape=mxgraph.flowchart.database;whiteSpace=wrap;fillColor=#FFFFFF;strokeColor=#000000;" vertex="1" parent="1">
          <mxGeometry x="365" y="930" width="95" height="80" as="geometry" />
        </mxCell>
        <mxCell id="QR9VkMOGDWLdo13nXd3E-16" value="" style="endArrow=classic;startArrow=classic;html=1;rounded=0;entryX=0.5;entryY=1;entryDx=0;entryDy=0;strokeColor=#000000;" edge="1" parent="1" source="QR9VkMOGDWLdo13nXd3E-14" target="QR9VkMOGDWLdo13nXd3E-4">
          <mxGeometry width="50" height="50" relative="1" as="geometry">
            <mxPoint x="30" y="800" as="sourcePoint" />
            <mxPoint x="80" y="750" as="targetPoint" />
          </mxGeometry>
        </mxCell>
        <mxCell id="QR9VkMOGDWLdo13nXd3E-17" value="" style="endArrow=classic;startArrow=classic;html=1;rounded=0;entryX=0.5;entryY=1;entryDx=0;entryDy=0;strokeColor=#000000;" edge="1" parent="1" source="QR9VkMOGDWLdo13nXd3E-15" target="QR9VkMOGDWLdo13nXd3E-5">
          <mxGeometry width="50" height="50" relative="1" as="geometry">
            <mxPoint x="115" y="930" as="sourcePoint" />
            <mxPoint x="115" y="750" as="targetPoint" />
            <Array as="points" />
          </mxGeometry>
        </mxCell>
        <mxCell id="QR9VkMOGDWLdo13nXd3E-18" value="" style="endArrow=classic;startArrow=classic;html=1;rounded=0;entryX=0.5;entryY=1;entryDx=0;entryDy=0;strokeColor=#000000;exitX=0.642;exitY=-0.012;exitDx=0;exitDy=0;exitPerimeter=0;" edge="1" parent="1" source="QR9VkMOGDWLdo13nXd3E-15" target="QR9VkMOGDWLdo13nXd3E-11">
          <mxGeometry width="50" height="50" relative="1" as="geometry">
            <mxPoint x="424.5" y="910" as="sourcePoint" />
            <mxPoint x="424.5" y="740" as="targetPoint" />
            <Array as="points" />
          </mxGeometry>
        </mxCell>
        <mxCell id="QR9VkMOGDWLdo13nXd3E-19" value="3306" style="text;html=1;strokeColor=none;fillColor=#BFBFBF;align=center;verticalAlign=middle;whiteSpace=wrap;rounded=0;fontColor=#000000;" vertex="1" parent="1">
          <mxGeometry x="160" y="660" width="50" height="20" as="geometry" />
        </mxCell>
        <mxCell id="QR9VkMOGDWLdo13nXd3E-20" value="9000" style="text;html=1;strokeColor=none;fillColor=#BFBFBF;align=center;verticalAlign=middle;whiteSpace=wrap;rounded=0;fontColor=#000000;" vertex="1" parent="1">
          <mxGeometry x="388.5" y="660" width="50" height="20" as="geometry" />
        </mxCell>
        <mxCell id="QR9VkMOGDWLdo13nXd3E-22" value="" style="endArrow=classic;startArrow=classic;html=1;rounded=0;exitX=0.5;exitY=0;exitDx=0;exitDy=0;strokeColor=#000000;dashed=1;" edge="1" parent="1" source="QR9VkMOGDWLdo13nXd3E-11" target="QR9VkMOGDWLdo13nXd3E-1">
          <mxGeometry width="50" height="50" relative="1" as="geometry">
            <mxPoint x="410" y="800" as="sourcePoint" />
            <mxPoint x="460" y="750" as="targetPoint" />
          </mxGeometry>
        </mxCell>
        <mxCell id="QR9VkMOGDWLdo13nXd3E-23" value="443" style="text;html=1;strokeColor=none;fillColor=#BFBFBF;align=center;verticalAlign=middle;whiteSpace=wrap;rounded=0;fontColor=#000000;" vertex="1" parent="1">
          <mxGeometry x="538" y="510" width="50" height="20" as="geometry" />
        </mxCell>
        <mxCell id="QR9VkMOGDWLdo13nXd3E-25" value="&lt;font color=&quot;#000000&quot;&gt;&lt;b&gt;Computer HOST&lt;/b&gt;&lt;/font&gt;" style="text;html=1;strokeColor=none;fillColor=none;align=center;verticalAlign=middle;whiteSpace=wrap;rounded=0;" vertex="1" parent="1">
          <mxGeometry x="-70" y="568" width="120" height="30" as="geometry" />
        </mxCell>
        <mxCell id="QR9VkMOGDWLdo13nXd3E-26" value="&lt;font color=&quot;#000000&quot;&gt;&lt;b&gt;&lt;br&gt;Docker Network&lt;/b&gt;&lt;/font&gt;" style="text;html=1;strokeColor=none;fillColor=none;align=center;verticalAlign=middle;whiteSpace=wrap;rounded=0;" vertex="1" parent="1">
          <mxGeometry x="5" y="598" width="120" height="30" as="geometry" />
        </mxCell>
        <mxCell id="QR9VkMOGDWLdo13nXd3E-27" value="&lt;font color=&quot;#000000&quot;&gt;&lt;br&gt;Adminer&lt;br&gt;files&lt;br&gt;&lt;/font&gt;" style="strokeWidth=1;html=1;shape=mxgraph.flowchart.database;whiteSpace=wrap;fillColor=#FFFFFF;strokeColor=#000000;" vertex="1" parent="1">
          <mxGeometry x="515.5" y="930" width="95" height="80" as="geometry" />
        </mxCell>
        <mxCell id="QR9VkMOGDWLdo13nXd3E-28" value="" style="endArrow=classic;startArrow=classic;html=1;rounded=0;entryX=0.609;entryY=1.005;entryDx=0;entryDy=0;strokeColor=#000000;exitX=0.5;exitY=0;exitDx=0;exitDy=0;exitPerimeter=0;entryPerimeter=0;" edge="1" parent="1" source="QR9VkMOGDWLdo13nXd3E-27" target="QR9VkMOGDWLdo13nXd3E-11">
          <mxGeometry width="50" height="50" relative="1" as="geometry">
            <mxPoint x="333" y="949" as="sourcePoint" />
            <mxPoint x="535" y="750" as="targetPoint" />
            <Array as="points" />
          </mxGeometry>
        </mxCell>
        <mxCell id="QR9VkMOGDWLdo13nXd3E-29" value="" style="endArrow=classic;startArrow=classic;html=1;rounded=0;entryX=0.75;entryY=1;entryDx=0;entryDy=0;strokeColor=#000000;exitX=0.316;exitY=0.006;exitDx=0;exitDy=0;exitPerimeter=0;" edge="1" parent="1" source="QR9VkMOGDWLdo13nXd3E-27" target="QR9VkMOGDWLdo13nXd3E-5">
          <mxGeometry width="50" height="50" relative="1" as="geometry">
            <mxPoint x="405" y="940" as="sourcePoint" />
            <mxPoint x="320" y="750" as="targetPoint" />
            <Array as="points" />
          </mxGeometry>
        </mxCell>
        <mxCell id="QR9VkMOGDWLdo13nXd3E-30" value="&lt;font color=&quot;#000000&quot;&gt;Redis&lt;br&gt;Cache&lt;br&gt;&lt;/font&gt;" style="rounded=1;whiteSpace=wrap;html=1;fillColor=#FFFFFF;strokeColor=#000000;" vertex="1" parent="1">
          <mxGeometry x="125" y="770" width="110" height="100" as="geometry" />
        </mxCell>
        <mxCell id="QR9VkMOGDWLdo13nXd3E-31" value="" style="endArrow=classic;startArrow=classic;html=1;rounded=0;dashed=1;strokeColor=#000000;exitX=0.668;exitY=-0.005;exitDx=0;exitDy=0;exitPerimeter=0;entryX=-0.005;entryY=0.685;entryDx=0;entryDy=0;entryPerimeter=0;" edge="1" parent="1" source="QR9VkMOGDWLdo13nXd3E-30" target="QR9VkMOGDWLdo13nXd3E-5">
          <mxGeometry width="50" height="50" relative="1" as="geometry">
            <mxPoint x="130" y="700" as="sourcePoint" />
            <mxPoint x="265" y="700" as="targetPoint" />
          </mxGeometry>
        </mxCell>
        <mxCell id="QR9VkMOGDWLdo13nXd3E-32" value="" style="endArrow=classic;startArrow=classic;html=1;rounded=0;dashed=1;strokeColor=#000000;exitX=0.5;exitY=0;exitDx=0;exitDy=0;entryX=1;entryY=0.75;entryDx=0;entryDy=0;" edge="1" parent="1" source="QR9VkMOGDWLdo13nXd3E-30" target="QR9VkMOGDWLdo13nXd3E-4">
          <mxGeometry width="50" height="50" relative="1" as="geometry">
            <mxPoint x="213" y="790" as="sourcePoint" />
            <mxPoint x="264" y="719" as="targetPoint" />
          </mxGeometry>
        </mxCell>
        <mxCell id="QR9VkMOGDWLdo13nXd3E-33" value="6379" style="text;html=1;strokeColor=none;fillColor=#BFBFBF;align=center;verticalAlign=middle;whiteSpace=wrap;rounded=0;fontColor=#000000;" vertex="1" parent="1">
          <mxGeometry x="160" y="720" width="50" height="20" as="geometry" />
        </mxCell>
        <mxCell id="QR9VkMOGDWLdo13nXd3E-35" value="&lt;font color=&quot;#000000&quot;&gt;FTP Server&lt;br&gt;(VSFTP)&lt;br&gt;&lt;/font&gt;" style="rounded=1;whiteSpace=wrap;html=1;fillColor=#FFFFFF;strokeColor=#000000;" vertex="1" parent="1">
          <mxGeometry x="620" y="640" width="110" height="100" as="geometry" />
        </mxCell>
        <mxCell id="QR9VkMOGDWLdo13nXd3E-37" value="" style="endArrow=classic;startArrow=classic;html=1;rounded=0;entryX=0.5;entryY=1;entryDx=0;entryDy=0;strokeColor=#000000;exitX=0.642;exitY=-0.012;exitDx=0;exitDy=0;exitPerimeter=0;" edge="1" parent="1" target="QR9VkMOGDWLdo13nXd3E-35">
          <mxGeometry width="50" height="50" relative="1" as="geometry">
            <mxPoint x="436" y="939" as="sourcePoint" />
            <mxPoint x="525" y="750" as="targetPoint" />
            <Array as="points" />
          </mxGeometry>
        </mxCell>
        <mxCell id="QR9VkMOGDWLdo13nXd3E-38" value="" style="endArrow=classic;startArrow=classic;html=1;rounded=0;exitX=0.5;exitY=0;exitDx=0;exitDy=0;strokeColor=#000000;dashed=1;" edge="1" parent="1" target="QR9VkMOGDWLdo13nXd3E-39">
          <mxGeometry width="50" height="50" relative="1" as="geometry">
            <mxPoint x="670" y="640" as="sourcePoint" />
            <mxPoint x="670" y="448" as="targetPoint" />
          </mxGeometry>
        </mxCell>
        <mxCell id="QR9VkMOGDWLdo13nXd3E-39" value="" style="shape=image;html=1;verticalAlign=top;verticalLabelPosition=bottom;labelBackgroundColor=#ffffff;imageAspect=0;aspect=fixed;image=https://cdn4.iconfinder.com/data/icons/ionicons/512/icon-ios7-world-outline-128.png" vertex="1" parent="1">
          <mxGeometry x="602" y="270" width="128" height="128" as="geometry" />
        </mxCell>
        <mxCell id="QR9VkMOGDWLdo13nXd3E-40" value="4242" style="text;html=1;strokeColor=none;fillColor=#BFBFBF;align=center;verticalAlign=middle;whiteSpace=wrap;rounded=0;fontColor=#000000;" vertex="1" parent="1">
          <mxGeometry x="700" y="510" width="50" height="20" as="geometry" />
        </mxCell>
        <mxCell id="QR9VkMOGDWLdo13nXd3E-43" value="4242 &amp;lt;-&amp;gt; 21" style="text;html=1;strokeColor=none;fillColor=#BFBFBF;align=center;verticalAlign=middle;whiteSpace=wrap;rounded=0;fontColor=#000000;" vertex="1" parent="1">
          <mxGeometry x="678" y="568" width="72" height="20" as="geometry" />
        </mxCell>
        <mxCell id="QR9VkMOGDWLdo13nXd3E-45" value="21" style="text;html=1;strokeColor=none;fillColor=#BFBFBF;align=center;verticalAlign=middle;whiteSpace=wrap;rounded=0;fontColor=#000000;" vertex="1" parent="1">
          <mxGeometry x="680" y="608" width="50" height="20" as="geometry" />
        </mxCell>
        <mxCell id="QR9VkMOGDWLdo13nXd3E-46" value="&lt;font color=&quot;#000000&quot;&gt;Info collector&lt;br&gt;(Node Exporter)&lt;br&gt;&lt;/font&gt;" style="rounded=1;whiteSpace=wrap;html=1;fillColor=#FFFFFF;strokeColor=#000000;" vertex="1" parent="1">
          <mxGeometry x="780" y="640" width="110" height="100" as="geometry" />
        </mxCell>
        <mxCell id="QR9VkMOGDWLdo13nXd3E-47" value="&lt;font color=&quot;#000000&quot;&gt;/proc&lt;br&gt;/sys&lt;br&gt;/&lt;br&gt;&lt;/font&gt;" style="whiteSpace=wrap;html=1;shape=mxgraph.basic.document;fillColor=#FFFFFF;strokeColor=#000000;" vertex="1" parent="1">
          <mxGeometry x="795" y="930" width="80" height="80" as="geometry" />
        </mxCell>
        <mxCell id="QR9VkMOGDWLdo13nXd3E-48" value="" style="endArrow=classic;startArrow=classic;html=1;rounded=0;entryX=0.5;entryY=1;entryDx=0;entryDy=0;strokeColor=#000000;exitX=0.5;exitY=0;exitDx=0;exitDy=0;exitPerimeter=0;" edge="1" parent="1" source="QR9VkMOGDWLdo13nXd3E-47" target="QR9VkMOGDWLdo13nXd3E-46">
          <mxGeometry width="50" height="50" relative="1" as="geometry">
            <mxPoint x="740" y="1090" as="sourcePoint" />
            <mxPoint x="979" y="891" as="targetPoint" />
            <Array as="points" />
          </mxGeometry>
        </mxCell>
        <mxCell id="QR9VkMOGDWLdo13nXd3E-50" value="&lt;font color=&quot;#000000&quot;&gt;System Monitoring&lt;br&gt;(Prometheus)&lt;br&gt;&lt;/font&gt;" style="rounded=1;whiteSpace=wrap;html=1;fillColor=#FFFFFF;strokeColor=#000000;" vertex="1" parent="1">
          <mxGeometry x="990" y="640" width="110" height="100" as="geometry" />
        </mxCell>
        <mxCell id="QR9VkMOGDWLdo13nXd3E-51" value="&lt;font color=&quot;#000000&quot;&gt;&lt;br&gt;Prometheus&lt;br&gt;DB&lt;br&gt;&lt;/font&gt;" style="strokeWidth=1;html=1;shape=mxgraph.flowchart.database;whiteSpace=wrap;fillColor=#FFFFFF;strokeColor=#000000;" vertex="1" parent="1">
          <mxGeometry x="997.5" y="930" width="95" height="80" as="geometry" />
        </mxCell>
        <mxCell id="QR9VkMOGDWLdo13nXd3E-52" value="" style="endArrow=classic;startArrow=classic;html=1;rounded=0;entryX=0.5;entryY=1;entryDx=0;entryDy=0;strokeColor=#000000;exitX=0.5;exitY=0;exitDx=0;exitDy=0;exitPerimeter=0;" edge="1" parent="1" source="QR9VkMOGDWLdo13nXd3E-51" target="QR9VkMOGDWLdo13nXd3E-50">
          <mxGeometry width="50" height="50" relative="1" as="geometry">
            <mxPoint x="845" y="940" as="sourcePoint" />
            <mxPoint x="845" y="750" as="targetPoint" />
            <Array as="points" />
          </mxGeometry>
        </mxCell>
        <mxCell id="QR9VkMOGDWLdo13nXd3E-53" value="9100" style="text;html=1;strokeColor=none;fillColor=#BFBFBF;align=center;verticalAlign=middle;whiteSpace=wrap;rounded=0;fontColor=#000000;" vertex="1" parent="1">
          <mxGeometry x="920" y="660" width="50" height="20" as="geometry" />
        </mxCell>
        <mxCell id="QR9VkMOGDWLdo13nXd3E-54" value="9090" style="text;html=1;strokeColor=none;fillColor=#BFBFBF;align=center;verticalAlign=middle;whiteSpace=wrap;rounded=0;fontColor=#000000;" vertex="1" parent="1">
          <mxGeometry x="1130" y="660" width="50" height="20" as="geometry" />
        </mxCell>
        <mxCell id="QR9VkMOGDWLdo13nXd3E-55" value="&lt;font color=&quot;#000000&quot;&gt;Monitoring Web Interface&lt;br&gt;(Grafana)&lt;br&gt;&lt;/font&gt;" style="rounded=1;whiteSpace=wrap;html=1;fillColor=#FFFFFF;strokeColor=#000000;" vertex="1" parent="1">
          <mxGeometry x="1200" y="640" width="110" height="100" as="geometry" />
        </mxCell>
        <mxCell id="QR9VkMOGDWLdo13nXd3E-56" value="" style="shape=image;html=1;verticalAlign=top;verticalLabelPosition=bottom;labelBackgroundColor=#ffffff;imageAspect=0;aspect=fixed;image=https://cdn4.iconfinder.com/data/icons/ionicons/512/icon-ios7-world-outline-128.png" vertex="1" parent="1">
          <mxGeometry x="1191" y="260" width="128" height="128" as="geometry" />
        </mxCell>
        <mxCell id="QR9VkMOGDWLdo13nXd3E-57" value="" style="endArrow=classic;startArrow=classic;html=1;rounded=0;exitX=0.5;exitY=0;exitDx=0;exitDy=0;strokeColor=#000000;dashed=1;" edge="1" target="QR9VkMOGDWLdo13nXd3E-56" parent="1" source="QR9VkMOGDWLdo13nXd3E-55">
          <mxGeometry width="50" height="50" relative="1" as="geometry">
            <mxPoint x="1270.5" y="628" as="sourcePoint" />
            <mxPoint x="1215.5" y="738" as="targetPoint" />
          </mxGeometry>
        </mxCell>
        <mxCell id="QR9VkMOGDWLdo13nXd3E-58" value="3000" style="text;html=1;strokeColor=none;fillColor=#BFBFBF;align=center;verticalAlign=middle;whiteSpace=wrap;rounded=0;fontColor=#000000;" vertex="1" parent="1">
          <mxGeometry x="1269" y="510" width="50" height="20" as="geometry" />
        </mxCell>
        <mxCell id="QR9VkMOGDWLdo13nXd3E-59" value="" style="endArrow=classic;startArrow=classic;html=1;rounded=0;entryX=0;entryY=0.5;entryDx=0;entryDy=0;exitX=1;exitY=0.5;exitDx=0;exitDy=0;dashed=1;strokeColor=#000000;" edge="1" parent="1" source="QR9VkMOGDWLdo13nXd3E-46" target="QR9VkMOGDWLdo13nXd3E-50">
          <mxGeometry width="50" height="50" relative="1" as="geometry">
            <mxPoint x="895" y="689.5" as="sourcePoint" />
            <mxPoint x="990" y="689.5" as="targetPoint" />
          </mxGeometry>
        </mxCell>
        <mxCell id="QR9VkMOGDWLdo13nXd3E-60" value="" style="endArrow=classic;startArrow=classic;html=1;rounded=0;entryX=0;entryY=0.5;entryDx=0;entryDy=0;dashed=1;strokeColor=#000000;exitX=1;exitY=0.5;exitDx=0;exitDy=0;" edge="1" parent="1" source="QR9VkMOGDWLdo13nXd3E-50" target="QR9VkMOGDWLdo13nXd3E-55">
          <mxGeometry width="50" height="50" relative="1" as="geometry">
            <mxPoint x="900" y="700" as="sourcePoint" />
            <mxPoint x="1000" y="700" as="targetPoint" />
          </mxGeometry>
        </mxCell>
        <mxCell id="QR9VkMOGDWLdo13nXd3E-61" value="&lt;font color=&quot;#000000&quot;&gt;Personal&amp;nbsp;Website&lt;br&gt;(NodeJS)&lt;br&gt;&lt;/font&gt;" style="rounded=1;whiteSpace=wrap;html=1;fillColor=#FFFFFF;strokeColor=#000000;" vertex="1" parent="1">
          <mxGeometry x="1349" y="640" width="110" height="100" as="geometry" />
        </mxCell>
        <mxCell id="QR9VkMOGDWLdo13nXd3E-62" value="" style="endArrow=classic;startArrow=classic;html=1;rounded=0;exitX=0.5;exitY=0;exitDx=0;exitDy=0;strokeColor=#000000;dashed=1;" edge="1" source="QR9VkMOGDWLdo13nXd3E-61" target="QR9VkMOGDWLdo13nXd3E-64" parent="1">
          <mxGeometry width="50" height="50" relative="1" as="geometry">
            <mxPoint x="1399.5" y="628" as="sourcePoint" />
            <mxPoint x="1344.5" y="738" as="targetPoint" />
          </mxGeometry>
        </mxCell>
        <mxCell id="QR9VkMOGDWLdo13nXd3E-63" value="8080" style="text;html=1;strokeColor=none;fillColor=#BFBFBF;align=center;verticalAlign=middle;whiteSpace=wrap;rounded=0;fontColor=#000000;" vertex="1" parent="1">
          <mxGeometry x="1418" y="510" width="50" height="20" as="geometry" />
        </mxCell>
        <mxCell id="QR9VkMOGDWLdo13nXd3E-64" value="" style="shape=image;html=1;verticalAlign=top;verticalLabelPosition=bottom;labelBackgroundColor=#ffffff;imageAspect=0;aspect=fixed;image=https://cdn4.iconfinder.com/data/icons/ionicons/512/icon-ios7-world-outline-128.png" vertex="1" parent="1">
          <mxGeometry x="1340" y="260" width="128" height="128" as="geometry" />
        </mxCell>
        <mxCell id="QR9VkMOGDWLdo13nXd3E-65" value="&lt;font color=&quot;#000000&quot;&gt;&lt;br&gt;Website&lt;br&gt;.ejs and .html&lt;br&gt;&lt;/font&gt;" style="strokeWidth=1;html=1;shape=mxgraph.flowchart.database;whiteSpace=wrap;fillColor=#FFFFFF;strokeColor=#000000;" vertex="1" parent="1">
          <mxGeometry x="1356.5" y="930" width="95" height="80" as="geometry" />
        </mxCell>
        <mxCell id="QR9VkMOGDWLdo13nXd3E-66" value="" style="endArrow=classic;startArrow=classic;html=1;rounded=0;entryX=0.5;entryY=1;entryDx=0;entryDy=0;strokeColor=#000000;exitX=0.5;exitY=0;exitDx=0;exitDy=0;exitPerimeter=0;" edge="1" parent="1" source="QR9VkMOGDWLdo13nXd3E-65" target="QR9VkMOGDWLdo13nXd3E-61">
          <mxGeometry width="50" height="50" relative="1" as="geometry">
            <mxPoint x="1005" y="940" as="sourcePoint" />
            <mxPoint x="1005" y="750" as="targetPoint" />
            <Array as="points" />
          </mxGeometry>
        </mxCell>
      </root>
    </mxGraphModel>
  </diagram>
</mxfile>
